<?xml version="1.0" encoding="UTF-8" standalone="no"?>
<svg
   xmlns:dc="http://purl.org/dc/elements/1.1/"
   xmlns:cc="http://creativecommons.org/ns#"
   xmlns:rdf="http://www.w3.org/1999/02/22-rdf-syntax-ns#"
   xmlns:svg="http://www.w3.org/2000/svg"
   xmlns="http://www.w3.org/2000/svg"
   xmlns:sodipodi="http://sodipodi.sourceforge.net/DTD/sodipodi-0.dtd"
   xmlns:inkscape="http://www.inkscape.org/namespaces/inkscape"
   width="24"
   height="24"
   version="1.1"
   id="svg4"
   sodipodi:docname="me.svg"
   inkscape:version="1.0 (4035a4fb49, 2020-05-01)">
  <metadata
     id="metadata10">
    <rdf:RDF>
      <cc:Work
         rdf:about="">
        <dc:format>image/svg+xml</dc:format>
        <dc:type
           rdf:resource="http://purl.org/dc/dcmitype/StillImage" />
      </cc:Work>
    </rdf:RDF>
  </metadata>
  <defs
     id="defs8" />
  <sodipodi:namedview
     inkscape:document-rotation="0"
     pagecolor="#ffffff"
     bordercolor="#666666"
     borderopacity="1"
     objecttolerance="10"
     gridtolerance="10"
     guidetolerance="10"
     inkscape:pageopacity="0"
     inkscape:pageshadow="2"
     inkscape:window-width="2560"
     inkscape:window-height="1361"
     id="namedview6"
     showgrid="false"
     inkscape:zoom="2.625"
     inkscape:cx="-2.9274109"
     inkscape:cy="13.586188"
     inkscape:window-x="-9"
     inkscape:window-y="-9"
     inkscape:window-maximized="1"
     inkscape:current-layer="svg4" />
  <path
     d="m -42.45238,64.021065 v -6.802956 c 0,-6.802952 4.945796,-14.728145 11.063489,-17.717471 L 24.822371,12.070335 C 32.975984,8.0978075 34.872865,-0.72120378 28.993525,-7.6929902 l -3.595137,-4.2605348 c -7.30945,-8.660111 -13.228516,-24.828297 -13.228516,-36.149997 v -16.98256 a 39.725276,39.725276 0 0 1 79.450551,0 v 16.98256 c 0,11.3217 -5.958792,27.539544 -13.228519,36.169861 l -3.585207,4.2506032 c -5.859475,6.94199217 -4.032109,15.7709344 4.161228,19.7633238 l 56.211255,27.430302 c 6.10777,2.979396 11.06349,10.854932 11.06349,17.707541 v 6.802956 a 9.9313187,9.9313187 0 0 1 -9.93131,9.931319 H -32.521061 a 9.9313187,9.9313187 0 0 1 -9.931319,-9.931319 z"
     fill-rule="evenodd"
     fill-opacity="0.9"
     id="path2"
     style="stroke-width:9.93133"
     inkscape:export-xdpi="300"
     inkscape:export-ydpi="300" />
</svg>
