<?xml version="1.0" encoding="UTF-8" standalone="no"?>
<svg
   xmlns:dc="http://purl.org/dc/elements/1.1/"
   xmlns:cc="http://creativecommons.org/ns#"
   xmlns:rdf="http://www.w3.org/1999/02/22-rdf-syntax-ns#"
   xmlns:svg="http://www.w3.org/2000/svg"
   xmlns="http://www.w3.org/2000/svg"
   xmlns:sodipodi="http://sodipodi.sourceforge.net/DTD/sodipodi-0.dtd"
   xmlns:inkscape="http://www.inkscape.org/namespaces/inkscape"
   inkscape:version="1.0 (4035a4fb49, 2020-05-01)"
   sodipodi:docname="shop.svg"
   id="svg4"
   version="1.1"
   height="24"
   width="24">
  <metadata
     id="metadata10">
    <rdf:RDF>
      <cc:Work
         rdf:about="">
        <dc:format>image/svg+xml</dc:format>
        <dc:type
           rdf:resource="http://purl.org/dc/dcmitype/StillImage" />
      </cc:Work>
    </rdf:RDF>
  </metadata>
  <defs
     id="defs8" />
  <sodipodi:namedview
     inkscape:current-layer="svg4"
     inkscape:window-maximized="1"
     inkscape:window-y="-9"
     inkscape:window-x="-9"
     inkscape:cy="-8.9790156"
     inkscape:cx="-233.27542"
     inkscape:zoom="1.3125"
     showgrid="false"
     id="namedview6"
     inkscape:window-height="1361"
     inkscape:window-width="2560"
     inkscape:pageshadow="2"
     inkscape:pageopacity="0"
     guidetolerance="10"
     gridtolerance="10"
     objecttolerance="10"
     borderopacity="1"
     bordercolor="#666666"
     pagecolor="#ffffff" />
  <path
     inkscape:export-ydpi="300"
     inkscape:export-xdpi="300"
     style="stroke-width:19.4762"
     id="path2"
     fill-opacity="0.9"
     fill-rule="evenodd"
     d="m 72.166667,-270.14286 v -9.7381 a 87.642857,87.642857 0 0 1 175.285713,0 v 9.7381 h 48.69048 c 10.75085,0 19.47618,8.74482 19.47618,19.61253 V -16.796571 C 315.61904,4.6272376 298.18786,22 276.78352,22 H 42.835523 A 38.835523,38.835523 0 0 1 4,-16.796571 V -250.51086 c 0,-10.86771 8.666905,-19.632 19.47619,-19.632 z m 29.214283,0 H 218.2381 v -9.7381 a 58.428576,58.428576 0 0 0 -116.85715,0 z m -29.214283,0 v 77.90476 h 29.214283 v -77.90476 z m 146.071433,0 v 77.90476 h 29.21428 v -77.90476 z" />
</svg>
