<?xml version="1.0" encoding="UTF-8" standalone="no"?>
<svg
   xmlns:dc="http://purl.org/dc/elements/1.1/"
   xmlns:cc="http://creativecommons.org/ns#"
   xmlns:rdf="http://www.w3.org/1999/02/22-rdf-syntax-ns#"
   xmlns:svg="http://www.w3.org/2000/svg"
   xmlns="http://www.w3.org/2000/svg"
   xmlns:sodipodi="http://sodipodi.sourceforge.net/DTD/sodipodi-0.dtd"
   xmlns:inkscape="http://www.inkscape.org/namespaces/inkscape"
   inkscape:version="1.0 (4035a4fb49, 2020-05-01)"
   sodipodi:docname="tag-o.svg"
   id="svg4"
   version="1.1"
   height="24"
   width="24">
  <metadata
     id="metadata10">
    <rdf:RDF>
      <cc:Work
         rdf:about="">
        <dc:format>image/svg+xml</dc:format>
        <dc:type
           rdf:resource="http://purl.org/dc/dcmitype/StillImage" />
      </cc:Work>
    </rdf:RDF>
  </metadata>
  <defs
     id="defs8" />
  <sodipodi:namedview
     inkscape:current-layer="svg4"
     inkscape:window-maximized="1"
     inkscape:window-y="-9"
     inkscape:window-x="-9"
     inkscape:cy="-38.697229"
     inkscape:cx="21.090429"
     inkscape:zoom="1.8561553"
     showgrid="false"
     id="namedview6"
     inkscape:window-height="1361"
     inkscape:window-width="2560"
     inkscape:pageshadow="2"
     inkscape:pageopacity="0"
     guidetolerance="10"
     gridtolerance="10"
     objecttolerance="10"
     borderopacity="1"
     bordercolor="#666666"
     pagecolor="#ffffff" />
  <path
     inkscape:export-ydpi="300"
     inkscape:export-xdpi="300"
     style="stroke-width:15.2687"
     id="path2"
     fill-opacity="0.9"
     fill-rule="evenodd"
     d="m -132.68981,22.727904 a 15.26868,15.26868 0 0 1 0,-21.5899155 L 12.362654,-143.91447 a 15.26868,15.26868 0 0 1 10.79495,-4.47372 H 123.71713 a 15.26868,15.26868 0 0 1 15.26868,15.26868 v 100.559528 a 15.26868,15.26868 0 0 1 -4.47372,10.79495 L -10.540366,123.28743 a 15.26868,15.26868 0 0 1 -21.58992,0 z M 120.6634,-33.827292 V -130.06578 H 24.424914 L -117.57382,11.932947 -21.335326,108.17144 Z m -58.020986,-15.31448 a 22.90302,22.90302 0 1 1 0,-45.80604 22.90302,22.90302 0 0 1 0,45.80604 z" />
</svg>
