<?xml version="1.0" encoding="UTF-8" standalone="no"?>
<svg
   xmlns:dc="http://purl.org/dc/elements/1.1/"
   xmlns:cc="http://creativecommons.org/ns#"
   xmlns:rdf="http://www.w3.org/1999/02/22-rdf-syntax-ns#"
   xmlns:svg="http://www.w3.org/2000/svg"
   xmlns="http://www.w3.org/2000/svg"
   xmlns:sodipodi="http://sodipodi.sourceforge.net/DTD/sodipodi-0.dtd"
   xmlns:inkscape="http://www.inkscape.org/namespaces/inkscape"
   inkscape:export-ydpi="300"
   inkscape:export-xdpi="300"
   inkscape:export-filename="C:\Users\justi\Desktop\Intern_2020\laotu-wechat\miniprogram\weUISvg\tag.png"
   inkscape:version="1.0 (4035a4fb49, 2020-05-01)"
   sodipodi:docname="tag.svg"
   id="svg4"
   version="1.1"
   height="24"
   width="24">
  <metadata
     id="metadata10">
    <rdf:RDF>
      <cc:Work
         rdf:about="">
        <dc:format>image/svg+xml</dc:format>
        <dc:type
           rdf:resource="http://purl.org/dc/dcmitype/StillImage" />
      </cc:Work>
    </rdf:RDF>
  </metadata>
  <defs
     id="defs8" />
  <sodipodi:namedview
     inkscape:current-layer="svg4"
     inkscape:window-maximized="1"
     inkscape:window-y="-9"
     inkscape:window-x="-9"
     inkscape:cy="-33.52727"
     inkscape:cx="77.211491"
     inkscape:zoom="0.92807765"
     showgrid="false"
     id="namedview6"
     inkscape:window-height="1361"
     inkscape:window-width="2560"
     inkscape:pageshadow="2"
     inkscape:pageopacity="0"
     guidetolerance="10"
     gridtolerance="10"
     objecttolerance="10"
     borderopacity="1"
     bordercolor="#666666"
     pagecolor="#ffffff" />
  <path
     style="stroke-width:26.8564"
     id="path2"
     fill-opacity="0.9"
     fill-rule="evenodd"
     d="m -267.21658,88.480434 a 26.856397,26.856397 0 0 1 0,-37.97494 L -12.080799,-204.63029 a 26.856397,26.856397 0 0 1 18.9874695,-7.86892 H 183.78291 a 26.856397,26.856397 0 0 1 26.85639,26.85639 V -8.7665756 A 26.856397,26.856397 0 0 1 202.77038,10.220894 L -52.365399,265.35667 a 26.856397,26.856397 0 0 1 -37.97494,0 z M 76.357321,-24.504426 a 53.712795,53.712795 0 1 0 0,-107.425594 53.712795,53.712795 0 0 0 0,107.425594 z" />
</svg>
